<svg aria-label="The Hoxton Logo" height="28" role="img" viewBox="0 0 160 28" width="160" xmlns="http://www.w3.org/2000/svg"><title>The Hoxton Logo</title><path d="m28.7 25.2c0 0.9 0.8 1.3 1.1 1.4 0.7 0.1 0.8 0.1 0.8 0.1v0.3h-8.9v-0.3c0.5-0.1 1.7-0.4 1.8-1.4v-8.9c0-1.6-0.5-2.8-1.8-3.3-1.3-0.6-2.5-0.4-4 0.6h-0.2v11.4c0 1.4 1 1.5 1.7 1.6v0.3h-8.8v-0.3c0.6-0.1 1.9-0.4 1.9-1.6v-19.1c-0.1-1.8-0.4-2.2-2.1-2.6l-0.2-0.6c1.6-0.3 7.8-1.9 7.8-1.9v11.4l1.5-1c2-1.2 3.9-1.6 5.8-1.2 2.1 0.5 3.3 2 3.5 4.2zm-19.2-0.8c0 0-0.9 0.8-1.9 0.8-1.4 0-2-0.8-2-2v-11.3h3.9v-1.6h-3.9v-5.9h-0.7l-4.7 3.6v15.9c0 0.1 0 0.6 0.2 1 0.3 1 1.4 2.5 3.9 2.4 4.1 0 5.7-2.4 5.7-2.4zm37.2-0.8c-2.3 3.2-5.7 4.5-9.8 3.6-3.1-0.8-5.2-2.5-6.1-5.6-0.9-3.1-0.3-6.1 1.3-8.5 1.2-1.6 3.2-3.5 7.1-3.5 0.9 0 4 0 6 2.3 1 1.3 1.8 2.7 2 4.6q-2.8 0.8-5.3 1.5c-1.7 0.5-5.3 1.6-5.3 1.6 0 0 0.2 3.4 3.4 4.7 2.1 0.9 4.4 0.2 6.1-1.2zm-10.4-5.7c0.3-0.1 2.9-0.8 3.6-1 1.3-0.4 1.7-0.8 1.7-2.1 0.1-1.6-0.4-2.8-1.4-3.1-0.4-0.2-1-0.2-1.5-0.2-0.8 0.2-1.4 0.8-1.9 1.7-0.5 1.3-0.7 2.7-0.5 4.7zm121 6.7v-9.5c0-1.8-0.9-3.4-2.2-4.5-1.1-0.8-3-1.1-4.4-0.7-2.3 0.6-4.5 2.3-4.5 2.3l-0.9-2.1-6.1 1.8 0.2 0.7c1 0.2 1.6 1.1 1.8 2.1v9.9c0 1.2-1.1 1.8-1.8 2v0.2h8.6v-0.1c-0.8-0.1-1.6-0.7-1.6-1.9v-10.8c0 0 2-1.7 3.8-1.1 1.5 0.5 1.9 1.8 2 3.2v8.8c0 1.1-1 1.7-1.8 1.9v0.3h8.7v-0.4c-0.9-0.3-1.8-0.7-1.8-2.1zm-48.9 1.2l-11.4-15.5h-6.4v0.2c0.3 0 0.5 0.3 0.8 0.4l0.5 0.5 11.3 15.4h6.3v-0.1c-0.5 0-1.1-0.9-1.1-0.9zm-5.1-10.8c-0.4 0.6-0.8 1.1-0.8 1.1l0.6 0.8 0.5-0.5c1.7-1.8 6.1-6 6.1-6h-6.5l0.1 0.1c0.9 1.2 0.9 3.1 0 4.5zm-6.5 7.2c0.4-0.5 0.7-1 0.8-1.1l-0.5-0.8-0.5 0.5c-1.8 1.8-6.1 6-6.1 6h6.5l-0.2-0.1c-0.9-1.2-0.7-3.1 0-4.5zm29.5-11.8c2.2-0.8 4.4-0.9 6.7-0.4 3.6 0.9 6.5 4.8 5.9 9.8-0.7 5.4-4.4 7.9-9.7 7.6-1.4 0-4-0.3-5.8-2.1-2.2-2.2-3.5-5-2.4-9.1 1-4.7 5.3-5.8 5.3-5.8zm-0.4 8.8c0.1 0.7 0.3 1.5 0.4 2.1 0.4 1.4 0.8 2.8 1.8 4 0.6 0.7 1.5 1.1 2.4 1h0.2c1.2-0.1 2.1-0.8 2.6-2.2 0.2-0.5 0.4-1 0.5-1.6 0.2-1.3 0.2-2.7 0.1-4.1 0 0-0.2-1.9-0.4-2.4-0.3-1.4-0.7-2.8-1.7-3.8-0.7-0.8-1.6-1-2.5-1h-0.1c-1.1 0.1-2 0.7-2.5 2-0.3 0.5-0.4 1-0.5 1.6-0.3 1.3-0.3 2.7-0.2 4.1zm-46.9-8.8c2.1-0.7 4.4-0.9 6.7-0.3 3.5 0.8 6.5 4.8 5.8 9.8-0.6 5.3-4.3 7.8-9.6 7.6-1.4 0-4.1-0.4-5.9-2.2-2.1-2.1-3.4-4.9-2.4-9 0.9-4.7 5.4-5.9 5.4-5.9zm-0.4 8.8c0.1 0.8 0.2 1.5 0.4 2.2 0.3 1.4 0.7 2.8 1.7 3.9 0.7 0.8 1.6 1.2 2.4 1h0.3c1.1-0.1 2-0.7 2.5-2.1 0.3-0.5 0.4-1 0.5-1.7 0.3-1.2 0.3-2.6 0.2-4 0 0-0.3-2-0.4-2.5-0.4-1.4-0.8-2.8-1.8-3.8-0.6-0.7-1.5-1-2.4-1h-0.1c-1.2 0.1-2.1 0.8-2.6 2-0.2 0.5-0.3 1.1-0.5 1.7-0.2 1.3-0.2 2.7-0.1 4.1zm41.8 5.2c0 0-0.9 0.7-1.9 0.7-1.4 0-2.1-0.7-2.1-1.9v-11.3h4v-1.6h-4v-5.9h-0.6l-4.6 3.6v15.9c0 0.1 0 0.6 0.2 1 0.3 1 1.4 2.5 3.9 2.4 4.1 0 5.7-2.4 5.7-2.4zm-49.1-10.2c-0.2-2.2-1.4-3.7-3.5-4.2-1.9-0.5-3.8-0.1-5.8 1.3l-1.5 1v-11.5c0 0-6.2 1.6-7.5 2l0.1 0.6c1.8 0.5 2 0.8 2.2 2.5v19.1c0 1.3-1.3 1.6-1.9 1.7v0.2h8.7v-0.2c-0.5-0.1-1.6-0.3-1.6-1.7v-11.3h0.1c1.4-1.1 2.8-1.3 4.1-0.6 1.2 0.6 1.7 1.6 1.7 3.3v8.9c-0.1 1.1-1.2 1.3-1.7 1.4v0.2h8.9v-0.2c0 0-0.2 0-0.8-0.1-0.5-0.2-1.1-0.4-1.1-1.4z" fill="#353535"></path></svg>